<svg xmlns="http://www.w3.org/2000/svg" width="450" viewBox="0 0 450 450" height="450" version="1.0"><defs><clipPath id="a"><path d="M 135 135 L 315 135 L 315 315 L 135 315 Z M 135 135"/></clipPath><clipPath id="b"><path d="M 188 135 L 315 135 L 315 243 L 188 243 Z M 188 135"/></clipPath><clipPath id="c"><path d="M 135 207 L 262 207 L 262 315 L 135 315 Z M 135 207"/></clipPath><clipPath id="d"><path d="M 206 135 L 315 135 L 315 261 L 206 261 Z M 206 135"/></clipPath><clipPath id="e"><path d="M 135 189 L 244 189 L 244 315 L 135 315 Z M 135 189"/></clipPath><clipPath id="f"><path d="M 209 185 L 315 185 L 315 315 L 209 315 Z M 209 185"/></clipPath><clipPath id="g"><path d="M 135 135 L 241 135 L 241 265 L 135 265 Z M 135 135"/></clipPath><clipPath id="h"><path d="M 189 206 L 315 206 L 315 315 L 189 315 Z M 189 206"/></clipPath><clipPath id="i"><path d="M 135 135 L 261 135 L 261 244 L 135 244 Z M 135 135"/></clipPath><clipPath id="j"><path d="M 135 167 L 286 167 L 286 315 L 135 315 Z M 135 167"/></clipPath></defs><g clip-path="url(#a)"><path fill="#F36856" d="M 315.007812 225 C 315.007812 274.707031 274.707031 315.007812 225 315.007812 C 175.292969 315.007812 134.992188 274.707031 134.992188 225 C 134.992188 175.292969 175.292969 134.992188 225 134.992188 C 274.707031 134.992188 315.007812 175.292969 315.007812 225"/></g><path fill="#FEF2D0" d="M 297.898438 225 C 297.898438 265.265625 265.265625 297.898438 225 297.898438 C 184.734375 297.898438 152.101562 265.265625 152.101562 225 C 152.101562 184.734375 184.734375 152.101562 225 152.101562 C 265.265625 152.101562 297.898438 184.734375 297.898438 225"/><path transform="matrix(.09073 0 0 -.09073 32.117 417.883)" fill="none" d="M 2126.000056 2838.482903 L 2126.000056 2723.481513" stroke="#24537C" stroke-width="50" stroke-miterlimit="10"/><path transform="matrix(.09073 0 0 -.09073 32.117 417.883)" fill="none" d="M 2126.000056 1528.517615 L 2126.000056 1413.516225" stroke="#24537C" stroke-width="50" stroke-miterlimit="10"/><path transform="matrix(.09073 0 0 -.09073 32.117 417.883)" fill="none" d="M 2838.483395 2125.999564 L 2723.482006 2125.999564" stroke="#24537C" stroke-width="50" stroke-miterlimit="10"/><path transform="matrix(.09073 0 0 -.09073 32.117 417.883)" fill="none" d="M 1528.518107 2125.999564 L 1413.516717 2125.999564" stroke="#24537C" stroke-width="50" stroke-miterlimit="10"/><g clip-path="url(#b)"><path transform="matrix(.09073 0 0 -.09073 32.117 417.883)" fill="none" d="M 2489.087559 2738.981514 L 2430.488948 2640.082902" stroke="#24537C" stroke-width="50" stroke-miterlimit="10"/></g><g clip-path="url(#c)"><path transform="matrix(.09073 0 0 -.09073 32.117 417.883)" fill="none" d="M 1821.511165 1611.916227 L 1762.912554 1512.888448" stroke="#24537C" stroke-width="50" stroke-miterlimit="10"/></g><g clip-path="url(#d)"><path transform="matrix(.09073 0 0 -.09073 32.117 417.883)" fill="none" d="M 2730.80145 2502.692623 L 2633.194505 2441.812067" stroke="#24537C" stroke-width="50" stroke-miterlimit="10"/></g><g clip-path="url(#e)"><path transform="matrix(.09073 0 0 -.09073 32.117 417.883)" fill="none" d="M 1618.805608 1810.100951 L 1521.198663 1749.306506" stroke="#24537C" stroke-width="50" stroke-miterlimit="10"/></g><g clip-path="url(#f)"><path transform="matrix(.09073 0 0 -.09073 32.117 417.883)" fill="none" d="M 2758.916728 1798.820395 L 2656.78895 1851.606506" stroke="#24537C" stroke-width="50" stroke-miterlimit="10"/></g><g clip-path="url(#g)"><path transform="matrix(.09073 0 0 -.09073 32.117 417.883)" fill="none" d="M 1595.211163 2400.392622 L 1493.083385 2453.178733" stroke="#24537C" stroke-width="50" stroke-miterlimit="10"/></g><g clip-path="url(#h)"><path transform="matrix(.09073 0 0 -.09073 32.117 417.883)" fill="none" d="M 2500.411171 1519.820393 L 2440.004226 1617.685671" stroke="#24537C" stroke-width="50" stroke-miterlimit="10"/></g><g clip-path="url(#i)"><path transform="matrix(.09073 0 0 -.09073 32.117 417.883)" fill="none" d="M 1811.995887 2634.313457 L 1751.588942 2732.178736" stroke="#24537C" stroke-width="50" stroke-miterlimit="10"/></g><path transform="matrix(.09073 0 0 -.09073 32.117 417.883)" fill="none" d="M 2126.000056 2572.012068 L 2126.000056 2213.488454" stroke="#24537C" stroke-width="50" stroke-miterlimit="10"/><g clip-path="url(#j)"><path transform="matrix(.09073 0 0 -.09073 32.117 417.883)" fill="none" d="M 2087.809778 2047.380119 L 1751.588942 1717.014839" stroke="#24537C" stroke-width="50" stroke-miterlimit="10"/></g><path transform="matrix(.09073 0 0 -.09073 32.117 417.883)" fill="none" d="M 2213.488946 2125.999564 C 2213.488946 2077.69123 2174.30839 2038.510675 2126.000056 2038.510675 C 2077.691723 2038.510675 2038.511167 2077.69123 2038.511167 2125.999564 C 2038.511167 2174.307898 2077.691723 2213.488454 2126.000056 2213.488454 C 2174.30839 2213.488454 2213.488946 2174.307898 2213.488946 2125.999564 Z M 2213.488946 2125.999564" stroke="#D7282F" stroke-width="50" stroke-miterlimit="10"/></svg>