<svg xmlns="http://www.w3.org/2000/svg" width="450" viewBox="0 0 450 450" height="450" version="1.0"><defs><clipPath id="a"><path d="M 172.125 135 L 277.875 135 L 277.875 303 L 172.125 303 Z M 172.125 135"/></clipPath></defs><path fill="#F9A72B" d="M 248.90625 304.691406 C 248.90625 310.269531 238.324219 314.789062 225.269531 314.789062 C 212.210938 314.789062 201.628906 310.269531 201.628906 304.691406 C 201.628906 299.121094 212.210938 294.597656 225.269531 294.597656 C 238.324219 294.597656 248.90625 299.121094 248.90625 304.691406"/><path fill="#FCD24F" d="M 248.425781 302.25 C 248.425781 307.828125 237.949219 312.347656 225.027344 312.347656 C 212.105469 312.347656 201.628906 307.828125 201.628906 302.25 C 201.628906 296.671875 212.105469 292.152344 225.027344 292.152344 C 237.949219 292.152344 248.425781 296.671875 248.425781 302.25"/><g clip-path="url(#a)"><path fill="#E33924" d="M 225.929688 135.210938 C 225.617188 135.210938 225.308594 135.226562 225 135.234375 C 224.691406 135.226562 224.382812 135.210938 224.070312 135.210938 C 195.371094 135.210938 172.101562 159.46875 172.101562 189.386719 C 172.101562 194.496094 174.082031 206.300781 177.054688 211.199219 L 225 302.25 L 272.945312 211.199219 C 275.917969 206.300781 277.898438 194.496094 277.898438 189.386719 C 277.898438 159.46875 254.632812 135.210938 225.929688 135.210938"/></g><path fill="#FFF" d="M 253.703125 183.351562 C 253.703125 199.203125 240.851562 212.050781 225 212.050781 C 209.148438 212.050781 196.296875 199.203125 196.296875 183.351562 C 196.296875 167.5 209.148438 154.652344 225 154.652344 C 240.851562 154.652344 253.703125 167.5 253.703125 183.351562"/></svg>