<svg xmlns="http://www.w3.org/2000/svg" width="450" viewBox="0 0 450 450" height="450" version="1.0"><defs><clipPath id="a"><path d="M 135 167.398438 L 315 167.398438 L 315 282.898438 L 135 282.898438 Z M 135 167.398438"/></clipPath><clipPath id="b"><path d="M 137 214 L 315 214 L 315 282.898438 L 137 282.898438 Z M 137 214"/></clipPath><clipPath id="c"><path d="M 137 167.398438 L 313 167.398438 L 313 240 L 137 240 Z M 137 167.398438"/></clipPath></defs><path fill="#FFF" d="M 140.582031 169.492188 L 309.40625 169.492188 C 309.847656 169.492188 310.273438 169.578125 310.683594 169.75 C 311.089844 169.917969 311.449219 170.160156 311.761719 170.472656 C 312.074219 170.785156 312.316406 171.148438 312.484375 171.554688 C 312.65625 171.964844 312.738281 172.390625 312.738281 172.835938 L 312.738281 277.515625 C 312.738281 277.960938 312.65625 278.386719 312.484375 278.796875 C 312.316406 279.203125 312.074219 279.566406 311.761719 279.878906 C 311.449219 280.191406 311.089844 280.433594 310.683594 280.601562 C 310.273438 280.773438 309.847656 280.855469 309.40625 280.859375 L 140.582031 280.859375 C 140.140625 280.855469 139.714844 280.773438 139.304688 280.601562 C 138.898438 280.433594 138.539062 280.191406 138.226562 279.878906 C 137.914062 279.566406 137.671875 279.203125 137.503906 278.796875 C 137.332031 278.386719 137.25 277.960938 137.25 277.515625 L 137.25 172.835938 C 137.25 172.390625 137.332031 171.964844 137.503906 171.554688 C 137.671875 171.148438 137.914062 170.785156 138.226562 170.472656 C 138.539062 170.160156 138.898438 169.917969 139.304688 169.75 C 139.714844 169.578125 140.140625 169.492188 140.582031 169.492188"/><g clip-path="url(#a)"><path stroke-linecap="round" transform="matrix(1.1107 0 0 1.11363 103.928 -454.542)" fill="none" stroke-linejoin="round" d="M 33.000499 560.358299 L 184.999029 560.358299 C 185.396443 560.358299 185.779789 560.435468 186.149067 560.589805 C 186.514829 560.740634 186.838387 560.958109 187.119742 561.238722 C 187.401097 561.519335 187.619147 561.845547 187.770376 562.210344 C 187.925121 562.578648 187.998977 562.960983 187.998977 563.360856 L 187.998977 657.359135 C 187.998977 657.759008 187.925121 658.141343 187.770376 658.509648 C 187.619147 658.874444 187.401097 659.200657 187.119742 659.481269 C 186.838387 659.761882 186.514829 659.979357 186.149067 660.130187 C 185.779789 660.284524 185.396443 660.358184 184.999029 660.361692 L 33.000499 660.361692 C 32.603085 660.358184 32.219739 660.284524 31.85046 660.130187 C 31.484699 659.979357 31.161141 659.761882 30.879786 659.481269 C 30.598431 659.200657 30.38038 658.874444 30.229152 658.509648 C 30.074407 658.141343 30.000551 657.759008 30.000551 657.359135 L 30.000551 563.360856 C 30.000551 562.960983 30.074407 562.578648 30.229152 562.210344 C 30.38038 561.845547 30.598431 561.519335 30.879786 561.238722 C 31.161141 560.958109 31.484699 560.740634 31.85046 560.589805 C 32.219739 560.435468 32.603085 560.358299 33.000499 560.358299" stroke="#000" stroke-width="3.75"/></g><g clip-path="url(#b)"><path transform="matrix(1.1107 0 0 1.11363 103.928 -454.542)" fill="none" stroke-linejoin="round" d="M 32.001689 658.358818 L 107.999195 602.359023 L 187.998977 660.361692" stroke="#000" stroke-width="3.75"/></g><path fill="#FFF" d="M 139.398438 170.261719 L 223.554688 237.042969 L 310.519531 169.53125 L 139.402344 170.261719 Z M 139.398438 170.261719" fill-rule="evenodd"/><g clip-path="url(#c)"><path transform="matrix(1.1107 0 0 1.11363 103.928 -454.542)" fill="none" stroke-linejoin="round" d="M 31.934867 561.049308 L 107.703772 621.016267 L 186.001356 560.393376 L 31.938384 561.049308 Z M 31.934867 561.049308" stroke="#000" stroke-width="3.75"/></g></svg>