<svg xmlns="http://www.w3.org/2000/svg" width="1440" viewBox="0 0 1440 810" height="810" version="1.0"><path fill="#FFF" d="M-144 -81H1584V891H-144z"/><path fill="#FFF" d="M-144 -81H1584V891H-144z"/><path fill="#CDC288" d="M-144 -81H1584V891H-144z"/><path fill="#F6EBCD" d="M 1226.171875 -51.59375 C 1321.683594 -47.613281 1410.566406 -20.078125 1493.148438 20.390625 C 1558.480469 52.570312 1602.589844 112.945312 1642.386719 175.3125 C 1674.558594 225.734375 1686.167969 283.125 1689.152344 336.867188 C 1693.792969 428.757812 1704.074219 520.980469 1661.292969 613.203125 C 1621.828125 698.128906 1559.144531 751.535156 1485.519531 795.988281 C 1387.351562 855.371094 1281.554688 901.148438 1168.464844 923.375 C 1111.75 934.65625 1052.71875 934.65625 994.679688 934.324219 C 986.71875 934.324219 970.136719 926.363281 957.203125 922.710938 C 927.6875 915.082031 898.171875 908.117188 869.648438 897.5 C 852.734375 891.199219 837.8125 878.589844 822.222656 868.972656 C 802.65625 857.027344 781.097656 847.742188 763.523438 833.144531 C 704.488281 784.378906 676.960938 720.355469 685.585938 644.386719 C 692.878906 579.699219 713.109375 515.671875 714.769531 450.984375 C 717.421875 350.136719 757.21875 264.21875 812.9375 186.589844 C 857.046875 125.550781 910.441406 71.148438 982.078125 34.988281 C 1033.152344 9.113281 1080.246094 -24.0625 1136.957031 -37 C 1166.140625 -43.300781 1196.320312 -46.617188 1226.171875 -51.59375 Z M 1226.171875 -51.59375"/></svg>